<svg width="75" height="75" viewBox="0 0 75 75" fill="none" xmlns="http://www.w3.org/2000/svg">
<path d="M36.2549 0.26368C35.5664 0.512703 8.24707 16.3477 6.35742 17.6074C5.41992 18.2373 4.92188 18.8379 4.59961 19.7315C4.43848 20.1856 4.40918 23.4522 4.40918 37.5732L4.39453 54.8584L4.74609 55.5908C4.93652 55.9863 5.34668 56.5576 5.6543 56.8506C6.34277 57.4805 17.6807 64.1309 18.2959 64.2481C18.6328 64.3213 18.8086 64.2627 19.1016 63.9697C19.834 63.2373 19.5264 62.5488 18.1641 61.7871L17.2852 61.3037V56.5137V51.7236L21.5039 54.1846L25.708 56.6455L25.752 61.3623C25.7812 64.79 25.7373 66.0645 25.6201 66.0645C25.5322 66.0645 25.0781 65.8301 24.6094 65.5518C23.6426 64.9658 22.998 64.8926 22.5586 65.332C22.1924 65.6982 22.1777 66.3721 22.5293 66.7676C22.9102 67.207 35.4053 74.4287 36.3281 74.751C37.2363 75.0732 38.3789 75.0147 39.1553 74.6191C41.001 73.6816 69.0967 57.1436 69.4482 56.7773C69.6973 56.5283 70.0635 55.9863 70.2539 55.5762L70.6055 54.8291L70.5762 37.3389L70.5322 19.8486L70.21 19.2627C70.0342 18.9404 69.6387 18.4424 69.3311 18.1494C68.6572 17.5049 39.7852 0.62989 38.7451 0.26368C37.8223 -0.0585861 37.1777 -0.0585861 36.2549 0.26368ZM42.0117 4.54102C44.1211 5.77149 45.8496 6.82618 45.8496 6.87012C45.8496 6.92872 43.9746 8.0713 41.6748 9.4043L37.5 11.8359L33.3252 9.4043C31.0254 8.0713 29.1504 6.92872 29.1504 6.87012C29.1504 6.79688 35.2881 3.14942 36.6211 2.4463C36.9434 2.27052 37.3242 2.19727 37.6465 2.24122C37.9834 2.28516 39.624 3.14942 42.0117 4.54102ZM31.0693 10.6348C33.3545 11.9678 35.2441 13.0811 35.2734 13.1104C35.3027 13.125 34.8926 13.3887 34.3652 13.6816C33.0469 14.4141 32.7979 14.9561 33.4131 15.7324C33.8525 16.2891 34.3213 16.2158 35.918 15.3076C36.6943 14.8682 37.4121 14.502 37.5 14.502C37.7344 14.502 45.8496 19.2188 45.8496 19.3506C45.8496 19.4092 43.9746 20.5371 41.6748 21.8848L37.5 24.3164L33.3252 21.8848C31.0254 20.5371 29.1504 19.3945 29.1504 19.3506C29.1504 19.292 29.3994 19.1016 29.7217 18.9258C30.4541 18.501 30.6299 18.2813 30.6445 17.71C30.6592 17.1533 30.2051 16.6992 29.6045 16.6992C29.3994 16.6992 28.6963 17.0068 28.0664 17.3584C27.4219 17.7246 26.8213 18.0029 26.7334 17.9883C26.6455 17.959 24.7119 16.8604 22.4414 15.5274C19.9072 14.0479 18.3838 13.0811 18.4863 13.0225C18.5889 12.9639 20.4932 11.8506 22.7051 10.5615C24.917 9.27247 26.7773 8.20313 26.8213 8.20313C26.8799 8.20313 28.7842 9.30177 31.0693 10.6348ZM52.0605 10.4297C54.1699 11.6455 56.0596 12.7588 56.2793 12.8906L56.6748 13.125L52.5586 15.542C50.2881 16.8604 48.3545 17.959 48.2666 17.9883C48.1641 18.0176 46.2012 16.9336 43.8867 15.5859C39.8877 13.2422 39.6973 13.125 40.0195 12.9346C43.374 10.9131 48.0029 8.23243 48.1055 8.21778C48.1934 8.20313 49.9658 9.19923 52.0605 10.4297ZM22.8955 18.3399L24.6387 19.3652L20.376 21.8408L16.1279 24.3164L11.9824 21.8994C9.69727 20.5664 7.82227 19.4238 7.80762 19.3652C7.77832 19.3066 9.65332 18.1641 11.9531 16.8311L16.1426 14.3848L18.6475 15.8643C20.0391 16.6699 21.9434 17.7832 22.8955 18.3399ZM63.8379 17.2852C65.6982 18.3691 67.2217 19.3066 67.1924 19.3652C67.1777 19.4238 65.3027 20.5664 63.0176 21.8994L58.8721 24.3164L54.6094 21.8408L50.3613 19.3506L51.9434 18.4277C52.8223 17.915 54.7266 16.8018 56.1768 15.9522L58.8135 14.3994L59.6338 14.8535C60.0732 15.1025 61.9775 16.2012 63.8379 17.2852ZM31.1865 23.1738C33.4131 24.4629 35.2441 25.5469 35.2734 25.5615C35.376 25.6494 26.9238 30.4834 26.748 30.4395C26.3672 30.3516 18.4717 25.708 18.501 25.5908C18.5596 25.3711 26.7334 20.669 26.9385 20.7275C27.041 20.7715 28.96 21.8701 31.1865 23.1738ZM52.3828 23.0859C54.668 24.419 56.543 25.5615 56.543 25.6201C56.5283 25.7227 48.5596 30.3662 48.252 30.4395C48.1494 30.4688 46.1719 29.3848 43.8574 28.0371C40.6641 26.1768 39.7266 25.5615 39.9023 25.459C40.0342 25.3857 41.9238 24.2725 44.1211 22.9981C46.3184 21.709 48.1494 20.6543 48.1787 20.6543C48.208 20.6543 50.0977 21.7529 52.3828 23.0859ZM10.9277 23.8184L15.0879 26.25V31.0107C15.0879 33.6182 15.0293 35.7422 14.9707 35.7129C14.8975 35.6836 12.9932 34.585 10.7227 33.252L6.5918 30.8496V26.1182C6.5918 23.5107 6.63574 21.3867 6.67969 21.3867C6.72363 21.3867 8.62793 22.4854 10.9277 23.8184ZM68.4082 26.1182V30.8496L64.2773 33.252C62.0068 34.585 60.1025 35.6836 60.0293 35.7129C59.9707 35.7422 59.9121 33.6182 59.9121 31.0107V26.25L64.0576 23.8184C66.3281 22.4854 68.2324 21.4014 68.3057 21.3867C68.3643 21.3867 68.4082 23.5107 68.4082 26.1182ZM41.8213 29.3848C44.1211 30.7324 45.9814 31.8457 45.9668 31.8604C45.9375 31.875 44.0332 32.9883 41.7188 34.3359L37.5 36.7969L33.2959 34.3359C30.9668 32.9883 29.0625 31.875 29.0332 31.8604C28.96 31.8018 37.2803 26.9678 37.4707 26.9678C37.5732 26.9531 39.5361 28.0518 41.8213 29.3848ZM21.7529 30.1318L25.708 32.4463L25.752 37.1777C25.7666 40.0342 25.7373 41.8945 25.6494 41.8945C25.5762 41.8945 23.6719 40.8252 21.4307 39.5068L17.3584 37.1191L17.3145 32.3291C17.2852 27.7734 17.2998 27.5391 17.5342 27.6709C17.6807 27.7588 19.585 28.8574 21.7529 30.1318ZM57.5391 37.1484C57.2607 37.3975 49.5117 41.8945 49.3506 41.8945C49.2627 41.8945 49.2334 40.0342 49.248 37.1777L49.292 32.4609L53.4668 30.0147L57.6416 27.583L57.6855 32.2705C57.7148 35.918 57.6709 37.0166 57.5391 37.1484ZM11.4258 36.2109L15.0146 38.3057L15.0586 43.0371C15.0732 45.7178 15.0293 47.7539 14.9561 47.7539C14.8828 47.7539 12.9932 46.6846 10.752 45.3662L6.66504 42.9785L6.62109 38.1885L6.5918 33.3838L7.20703 33.75C7.55859 33.9404 9.44824 35.0537 11.4258 36.2109ZM68.2324 43.0078C67.9688 43.2422 60.1904 47.7539 60.0439 47.7539C59.9707 47.7539 59.9121 47.2852 59.9121 46.7285C59.9121 45.5273 59.6484 45.1172 58.8428 45.1172C57.9639 45.1172 57.7881 45.4834 57.7441 47.4609L57.6855 49.2041L53.5254 51.6211C51.2402 52.9541 49.3359 54.0527 49.292 54.0527C49.248 54.0527 49.2188 51.9287 49.2188 49.3213V44.5898L53.3496 42.1875C55.6201 40.8545 57.5244 39.7559 57.5684 39.7266C57.627 39.7119 57.7148 40.0049 57.7588 40.3857C57.8906 41.5869 58.8428 42.0703 59.6484 41.3525C59.8535 41.1768 59.9121 40.8252 59.9414 39.7119L59.9854 38.3057L64.1602 35.8594L68.335 33.4277L68.3789 38.1299C68.4082 41.7774 68.3643 42.876 68.2324 43.0078ZM32.2119 36.2402C34.4092 37.5293 36.2402 38.6426 36.2695 38.7305C36.2988 38.8184 36.3135 40.9863 36.2988 43.5352L36.2549 48.1641L32.124 45.7471L27.9785 43.3301V38.5693C27.9785 35.9619 28.0371 33.8379 28.0957 33.8672C28.1689 33.8818 30.0146 34.9658 32.2119 36.2402ZM47.0215 38.584V43.3301L43.3301 45.4834C41.2939 46.6699 39.4043 47.7686 39.1406 47.9297L38.6719 48.2227L38.7012 43.418L38.7451 38.6133L42.7734 36.2402C44.9854 34.9365 46.8457 33.8525 46.9189 33.8525C46.9775 33.8379 47.0215 35.9766 47.0215 38.584ZM21.6504 42.1875L25.7812 44.5898V49.3213C25.7812 51.9287 25.752 54.0527 25.708 54.0527C25.6641 54.0527 23.7598 52.9541 21.46 51.6211L17.2852 49.1895V44.4287C17.2852 41.8066 17.3438 39.6973 17.4023 39.7266C17.4756 39.7412 19.3799 40.8545 21.6504 42.1875ZM10.9717 48.0322L15.0879 50.4492V55.1807C15.0879 57.7881 15.0586 59.9121 15.0146 59.9121C14.7363 59.9121 7.45605 55.5322 7.0752 55.1367L6.5918 54.6387V50.083C6.5918 47.4902 6.65039 45.5566 6.72363 45.5859C6.79688 45.6006 8.70117 46.7139 10.9717 48.0322ZM68.4082 50.0977V54.6387L67.9395 55.1367C67.5439 55.5322 60.2637 59.9121 59.9854 59.9121C59.9414 59.9121 59.9121 57.7881 59.9121 55.1807V50.4492L64.0576 48.0176C66.3281 46.6699 68.2324 45.5713 68.3057 45.5713C68.3643 45.5566 68.4082 47.6074 68.4082 50.0977ZM36.3281 55.4736C36.3281 58.0811 36.2842 60.2051 36.2402 60.2051C36.1963 60.2051 34.3213 59.1357 32.0654 57.8174L27.9785 55.4443V50.6543V45.8789L32.1533 48.3106L36.3281 50.7422V55.4736ZM47.0215 50.6397V55.4443L42.9346 57.8174C40.6787 59.1357 38.8037 60.2051 38.7598 60.2051C38.7158 60.2051 38.6719 58.0811 38.6719 55.4736V50.7422L42.8174 48.3106C45.0879 46.9775 46.9629 45.8643 46.9922 45.8643C47.0068 45.8496 47.0215 48.0029 47.0215 50.6397ZM57.7148 56.499L57.7002 61.3037L53.6133 63.6914C51.3721 64.9951 49.4678 66.0645 49.3799 66.0645C49.2627 66.0645 49.2188 64.6875 49.248 61.3623L49.292 56.6455L53.4668 54.1992C55.7666 52.8369 57.6562 51.7236 57.6855 51.7236C57.7002 51.709 57.7148 53.8623 57.7148 56.499ZM32.373 60.5274C34.4238 61.7285 36.1523 62.7686 36.2256 62.8272C36.2842 62.8857 36.3135 65.0537 36.2988 67.6465L36.2549 72.3633L32.1533 69.9609L28.0518 67.5732L28.0078 62.7832L27.9785 57.9932L28.3008 58.169C28.4766 58.2715 30.3076 59.3262 32.373 60.5274ZM46.9189 67.544C46.8457 67.6025 44.9854 68.7158 42.7734 70.0049L38.7451 72.3633L38.7012 67.6465C38.6865 65.0537 38.7158 62.8857 38.7744 62.8272C38.8477 62.7686 40.708 61.6553 42.9199 60.3662L46.9482 58.0078L46.9922 62.7246C47.0068 65.3174 46.9775 67.4854 46.9189 67.544Z" fill="#FFFFFE"/>
</svg>
